<?xml version="1.0" standalone="no"?>
<!DOCTYPE svg PUBLIC "-//W3C//DTD SVG 20010904//EN"
 "http://www.w3.org/TR/2001/REC-SVG-20010904/DTD/svg10.dtd">
<svg version="1.0" xmlns="http://www.w3.org/2000/svg"
 width="60.000000pt" height="60.000000pt" viewBox="0 0 60.000000 60.000000"
 preserveAspectRatio="xMidYMid meet">
<metadata>
Created by potrace 1.16, written by Peter Selinger 2001-2019
</metadata>
<g transform="translate(0.000000,60.000000) scale(0.004687,-0.004687)"
fill="#000000" stroke="none">
<path d="M8607 10613 c-3 -4 -7 -26 -8 -48 l-4 -40 47 -5 c26 -3 50 -9 55 -13
4 -4 1 -81 -5 -170 -7 -89 -13 -216 -13 -282 0 -66 -4 -142 -7 -170 l-7 -50
-50 -3 c-27 -2 -53 -9 -57 -15 -10 -16 -10 -74 0 -80 4 -3 78 -8 165 -12 l158
-7 -3 48 -3 49 -45 5 -45 5 -3 55 c-2 30 1 132 7 225 6 94 13 221 17 283 l7
112 48 0 c43 0 49 3 55 24 3 13 4 35 2 47 -3 21 -10 25 -56 30 -111 14 -250
21 -255 12z"/>
<path d="M9376 10529 c-8 -27 -38 -114 -46 -134 -4 -11 -15 -45 -24 -75 -10
-30 -21 -64 -26 -75 -5 -11 -11 -29 -13 -40 -5 -19 -22 -69 -38 -110 -4 -11
-15 -45 -25 -75 -9 -30 -19 -62 -22 -70 -3 -8 -22 -64 -43 -125 l-38 -110 21
-17 c11 -10 35 -18 53 -18 l32 0 71 213 c39 116 76 228 83 247 47 136 63 176
70 184 11 12 29 -35 40 -104 4 -30 15 -91 23 -135 8 -44 22 -118 31 -165 9
-47 20 -107 24 -135 24 -142 43 -229 52 -246 5 -11 20 -19 34 -19 13 0 27 -4
30 -10 10 -17 55 -11 61 8 3 9 10 26 14 37 5 11 16 45 26 75 9 30 20 64 25 75
9 23 174 517 194 583 l14 44 -34 14 c-53 22 -74 18 -81 -13 -3 -16 -9 -37 -14
-48 -5 -11 -16 -45 -26 -75 -9 -30 -20 -64 -25 -75 -4 -11 -15 -45 -25 -75 -9
-30 -21 -64 -25 -75 -5 -11 -25 -69 -44 -130 -20 -60 -42 -116 -50 -124 -11
-12 -14 -6 -20 35 -3 27 -8 60 -11 74 -16 82 -37 192 -44 235 -4 28 -15 86
-24 130 -9 44 -20 105 -25 135 -5 30 -12 67 -15 83 -3 15 -8 38 -11 51 -4 18
-17 27 -62 41 -32 10 -64 20 -70 23 -7 2 -15 -2 -17 -9z"/>
<path d="M7728 10509 c-20 -11 -22 -35 -9 -88 9 -34 28 -128 52 -251 6 -30 17
-84 24 -120 7 -36 18 -92 25 -125 6 -33 18 -86 26 -117 8 -32 14 -68 14 -81 0
-13 5 -38 11 -56 11 -31 12 -32 58 -26 25 4 75 13 111 20 36 7 92 19 125 25
33 6 86 18 117 26 32 8 69 14 82 14 13 0 31 3 40 6 20 8 21 53 1 80 -15 23
-13 23 -185 -11 -274 -55 -257 -54 -263 -14 -2 19 -12 72 -22 119 -27 137 -32
162 -44 225 -6 33 -15 78 -20 100 -5 22 -17 78 -26 125 -31 158 -32 160 -68
160 -18 0 -40 -5 -49 -11z"/>
<path d="M7186 10321 c-48 -27 -52 -42 -24 -87 14 -21 40 -66 58 -99 18 -33
41 -73 50 -90 123 -221 159 -286 173 -315 6 -14 16 -28 22 -32 5 -4 7 -10 3
-13 -8 -8 -64 22 -135 72 -17 13 -35 23 -38 23 -3 0 -21 11 -39 25 -18 14 -38
25 -43 25 -6 0 -16 6 -22 14 -7 8 -26 21 -44 30 -40 20 -63 35 -104 63 -17 13
-35 23 -39 23 -4 0 -22 11 -40 25 -18 14 -36 25 -40 25 -4 0 -22 11 -40 25
-18 14 -37 25 -42 25 -5 0 -15 7 -22 15 -17 21 -49 19 -85 -6 -16 -11 -40 -24
-52 -29 -24 -10 -30 -29 -14 -45 5 -6 23 -37 41 -70 18 -33 41 -73 50 -90 9
-16 32 -57 50 -90 34 -61 42 -75 100 -180 19 -33 41 -73 49 -88 9 -16 21 -36
26 -45 6 -10 29 -52 53 -95 25 -45 49 -77 58 -77 27 0 74 33 74 52 0 10 -10
35 -23 56 -13 20 -27 44 -30 52 -4 8 -15 29 -25 45 -10 17 -34 57 -52 90 -18
33 -41 74 -50 90 -9 17 -32 57 -50 90 -18 33 -46 84 -62 112 -26 47 -30 73
-10 73 4 0 156 -92 337 -205 353 -220 341 -215 410 -174 34 20 44 45 26 65 -5
5 -23 36 -41 69 -18 33 -41 74 -50 90 -9 17 -32 57 -50 90 -73 131 -84 151
-101 180 -10 17 -28 48 -39 70 -50 99 -131 235 -138 234 -4 0 -20 -8 -36 -18z"/>
<path d="M10417 10058 c-8 -13 -23 -33 -33 -44 -11 -12 -53 -68 -95 -125 -42
-57 -135 -180 -206 -274 -71 -93 -139 -184 -151 -202 l-23 -32 98 -73 c54 -40
107 -80 118 -89 63 -53 239 -179 248 -179 18 0 57 62 49 75 -4 7 -74 63 -157
125 -82 62 -162 124 -177 138 l-27 25 41 56 c23 31 66 87 96 124 l54 69 27
-24 c42 -39 298 -228 307 -228 17 0 53 63 45 77 -4 8 -75 65 -157 127 -82 62
-150 120 -152 129 -2 9 2 23 10 31 7 8 38 48 68 90 33 45 62 75 73 76 17 0 55
-25 112 -72 66 -55 251 -188 261 -188 17 0 55 51 52 69 -2 8 -46 46 -99 85
-53 39 -151 113 -219 164 -67 50 -128 92 -135 92 -7 0 -19 -10 -28 -22z"/>
<path d="M6195 9621 c-11 -5 -80 -77 -154 -160 l-133 -151 4 -91 c3 -87 4 -92
33 -116 27 -23 141 -123 169 -148 6 -5 50 -44 96 -85 47 -41 105 -94 130 -118
l45 -43 90 4 89 5 61 64 c75 80 173 192 202 230 19 26 20 38 16 111 l-5 82
-47 45 c-26 25 -85 79 -131 120 -46 41 -113 101 -149 134 -144 129 -139 126
-222 125 -41 0 -83 -4 -94 -8z m165 -132 c19 -17 49 -43 65 -57 17 -15 68 -61
115 -102 194 -171 200 -178 200 -229 0 -39 -6 -52 -38 -86 -20 -22 -50 -56
-66 -75 -79 -96 -96 -111 -143 -119 -53 -10 -57 -8 -131 60 -26 24 -79 71
-117 104 -39 33 -90 79 -115 102 -25 22 -59 54 -76 70 -24 21 -33 39 -38 75
-3 31 -1 52 7 60 10 12 58 66 172 196 25 28 34 32 79 32 43 0 57 -5 86 -31z"/>
<path d="M3500 7940 c-82 -8 -166 -37 -275 -95 -93 -49 -161 -105 -226 -188
-63 -80 -96 -142 -135 -252 l-29 -80 -5 -2085 -5 -2085 -105 -5 -105 -5 -3
-113 -3 -112 453 2 453 3 0 110 0 110 -112 3 -113 3 0 793 c0 715 2 794 16
800 9 3 141 6 294 6 222 0 280 -3 289 -14 8 -10 10 -226 9 -797 l-3 -784 -110
-5 -110 -5 -3 -112 -3 -113 456 0 455 0 0 115 0 115 -110 0 -110 0 0 2279 c0
2069 1 2279 16 2285 9 3 58 6 110 6 l95 0 -3 113 -3 112 -500 1 c-275 1 -534
-2 -575 -6z m390 -459 c12 -24 14 -2249 2 -2269 -7 -9 -74 -12 -303 -10 l-294
3 0 1035 0 1035 29 45 c61 96 127 147 223 169 21 5 104 9 185 10 136 1 148 0
158 -18z"/>
<path d="M5840 7939 c-47 -3 -95 -11 -107 -17 -12 -7 -30 -12 -40 -12 -55 0
-286 -149 -332 -215 -11 -16 -32 -43 -47 -60 -31 -36 -86 -143 -103 -205 -7
-25 -18 -58 -23 -75 -28 -87 -15 -364 23 -484 35 -109 117 -251 194 -335 25
-27 45 -52 45 -56 0 -4 -30 -30 -67 -57 -111 -81 -242 -212 -301 -299 -56 -83
-101 -189 -127 -299 -14 -63 -15 -183 -13 -1170 l3 -1100 24 -70 c23 -71 88
-210 106 -229 6 -6 26 -31 45 -56 70 -90 145 -148 290 -221 23 -11 119 -38
179 -49 70 -13 587 -13 671 0 219 35 398 148 515 325 88 134 123 234 136 390
5 61 8 398 7 750 l-3 640 -340 0 -340 0 -3 -107 c-3 -126 -14 -117 136 -121
l93 -2 -1 -560 c0 -308 -3 -585 -7 -615 -11 -101 -94 -197 -204 -235 -33 -12
-102 -15 -326 -15 l-284 0 -62 29 c-73 34 -108 67 -148 136 l-29 50 0 1075 c0
1191 -4 1112 66 1210 41 58 147 151 233 205 9 6 49 32 89 58 40 26 75 47 77
47 6 0 88 -52 95 -61 3 -3 32 -25 65 -49 33 -24 71 -54 85 -67 14 -13 30 -23
36 -23 7 0 34 28 62 63 74 93 194 240 209 255 7 7 13 19 13 25 -1 13 -86 82
-114 93 -32 12 -16 48 45 99 33 28 88 84 121 125 33 41 69 85 79 98 10 12 19
24 19 27 0 2 10 21 23 42 24 41 39 79 65 163 24 79 23 313 -2 395 -50 168
-136 300 -260 399 -74 59 -192 122 -246 132 -19 4 -41 11 -48 17 -17 14 -171
23 -272 16z m158 -455 c77 -22 144 -72 189 -142 36 -56 37 -59 37 -158 1 -91
-2 -106 -27 -156 -32 -63 -137 -169 -244 -246 -40 -29 -76 -52 -79 -52 -17 0
-116 91 -159 146 -65 82 -85 150 -85 284 0 122 14 162 80 234 46 50 82 71 150
91 61 18 71 18 138 -1z"/>
<path d="M7282 7937 c-9 -10 -12 -46 -10 -113 l3 -99 110 -5 110 -5 3 -2282 2
-2282 -112 -3 -113 -3 0 -110 0 -110 530 -3 c352 -2 550 1 590 8 58 11 145 35
175 50 204 97 353 266 412 465 11 39 24 115 28 170 5 55 11 877 14 1828 6
1996 10 1902 -84 2080 -72 139 -198 265 -328 332 -80 40 -114 55 -127 55 -7 0
-27 8 -46 17 -31 16 -85 18 -589 21 -484 3 -558 2 -568 -11z m1032 -457 c116
-17 210 -103 242 -221 20 -78 21 -3564 0 -3652 -22 -93 -69 -150 -163 -199
-51 -26 -58 -27 -230 -28 -98 -1 -184 -1 -190 -1 -10 1 -13 418 -13 2049 0
1127 3 2052 7 2055 10 11 270 8 347 -3z"/>
<path d="M11707 7641 c-54 -6 -60 -9 -113 -66 l-55 -60 6 -172 5 -173 -35 -39
-35 -38 -88 -2 c-87 -2 -87 -2 -118 31 l-31 33 -11 207 c-6 114 -13 212 -17
218 -9 14 -70 13 -83 -3 -7 -8 -7 -84 -1 -242 l10 -230 63 -62 63 -62 129 5
129 5 63 67 64 67 -6 105 c-13 230 -10 254 37 284 13 9 52 16 95 17 69 2 75 0
103 -27 l30 -30 11 -204 c6 -113 14 -209 19 -214 4 -4 26 -5 48 -1 l41 7 0 69
c0 82 -19 366 -26 394 -3 11 -32 44 -66 73 -58 50 -63 52 -117 51 -31 -1 -82
-5 -114 -8z"/>
<path d="M11107 6753 c-3 -15 -8 -37 -12 -48 -7 -22 4 -28 110 -60 33 -9 71
-21 85 -25 14 -5 52 -16 85 -25 107 -30 108 -31 100 -73 -3 -20 -17 -68 -29
-107 -13 -38 -31 -97 -41 -130 -35 -116 -39 -130 -45 -138 -3 -4 -26 -1 -51 7
-24 7 -84 26 -134 41 -49 15 -110 34 -134 41 -69 22 -77 19 -94 -31 -18 -51
-18 -51 63 -75 25 -7 63 -18 85 -25 22 -7 60 -18 85 -25 25 -7 63 -18 85 -25
59 -19 198 -61 300 -91 50 -14 107 -32 128 -40 75 -28 107 -12 107 54 0 28 -4
31 -57 47 -32 10 -76 23 -98 30 -22 7 -58 18 -80 24 -22 5 -50 13 -63 16 -34
10 -42 34 -26 85 16 53 37 123 60 200 8 30 20 65 25 78 5 13 9 31 9 42 0 40 6
39 207 -27 39 -12 79 -23 87 -23 9 0 25 -5 35 -12 29 -18 48 -3 56 42 10 58
16 53 -150 100 -16 4 -91 27 -165 50 -74 23 -157 48 -185 56 -27 8 -63 19 -80
24 -16 5 -46 13 -65 19 -19 6 -60 18 -90 27 -100 30 -107 30 -113 -3z"/>
<path d="M10910 5900 c-14 -4 -42 -8 -63 -9 -52 -1 -69 -12 -113 -73 -22 -29
-44 -60 -51 -68 -16 -20 -56 -75 -89 -124 -14 -22 -35 -49 -46 -60 -15 -16
-18 -29 -13 -56 4 -19 10 -59 15 -89 4 -35 14 -59 26 -68 10 -8 29 -22 41 -33
12 -10 34 -27 50 -37 15 -9 30 -20 33 -23 3 -4 88 -66 190 -140 l184 -133 91
17 90 18 118 163 c128 179 127 176 103 289 -13 61 -24 75 -106 132 -37 25 -61
43 -261 189 -123 90 -160 115 -169 114 -3 -1 -16 -5 -30 -9z m236 -267 c200
-145 219 -161 231 -200 17 -51 18 -48 -92 -201 -76 -105 -82 -111 -127 -122
l-48 -12 -177 128 c-98 71 -182 132 -188 136 -5 5 -29 22 -52 38 -33 23 -43
37 -43 58 0 15 -3 36 -5 47 -4 14 16 51 68 122 112 156 119 163 172 163 41 0
58 -10 261 -157z"/>
<path d="M10263 5272 c-24 -15 -43 -31 -43 -36 0 -4 41 -64 90 -133 59 -81 88
-129 83 -138 -5 -7 -60 -50 -123 -96 -157 -112 -156 -111 -164 -172 -3 -29 -9
-65 -12 -82 -4 -22 1 -39 20 -65 14 -19 37 -53 52 -74 14 -22 35 -49 45 -60
11 -11 29 -34 40 -51 20 -29 29 -32 106 -44 85 -12 100 -9 141 24 25 20 94 71
210 154 56 42 102 82 102 91 0 8 -9 27 -19 40 -11 14 -43 57 -70 95 -28 39
-54 75 -59 80 -4 6 -84 116 -177 245 -92 129 -171 238 -174 242 -3 4 -25 -5
-48 -20z m264 -466 c14 -22 34 -49 44 -60 11 -11 19 -23 19 -27 0 -3 13 -22
30 -40 16 -19 35 -45 42 -58 15 -28 17 -25 -146 -144 -43 -31 -88 -57 -100
-57 -45 0 -91 21 -108 47 -10 16 -38 56 -62 90 -57 79 -56 118 6 176 22 20 43
37 47 37 4 0 16 8 27 19 11 10 38 30 60 43 22 14 46 33 53 42 13 15 16 15 39
-6 13 -13 36 -41 49 -62z"/>
</g>
</svg>
